<svg xmlns="http://www.w3.org/2000/svg" xmlns:xlink="http://www.w3.org/1999/xlink" width="1080" zoomAndPan="magnify" viewBox="0 0 810 809.999993" height="1080" preserveAspectRatio="xMidYMid meet" version="1.0"><defs><clipPath id="92f2d01b7c"><path d="M 26.734375 22.914062 L 615 22.914062 L 615 787 L 26.734375 787 Z M 26.734375 22.914062 " clip-rule="nonzero"/></clipPath><clipPath id="ba0dfc27c8"><path d="M 237 69 L 783.484375 69 L 783.484375 740 L 237 740 Z M 237 69 " clip-rule="nonzero"/></clipPath></defs><g clip-path="url(#92f2d01b7c)"><path fill="#ff0000" d="M 408.710938 22.972656 C 484.414062 22.972656 554.949219 44.996094 614.296875 82.972656 C 564.53125 57.238281 508.042969 42.6875 448.144531 42.6875 C 248.023438 42.6875 85.832031 204.878906 85.832031 404.949219 C 85.832031 605.015625 248.023438 767.210938 448.144531 767.210938 C 508.042969 767.210938 564.53125 752.660156 614.296875 726.925781 C 554.949219 764.902344 484.414062 786.925781 408.710938 786.925781 C 197.757812 786.925781 26.734375 615.902344 26.734375 404.949219 C 26.734375 193.996094 197.757812 22.972656 408.710938 22.972656 Z M 408.710938 22.972656 " fill-opacity="1" fill-rule="evenodd"/></g><g clip-path="url(#ba0dfc27c8)"><path fill="#ffffff" d="M 448.144531 69.980469 C 633.113281 69.980469 783.113281 219.929688 783.113281 404.949219 C 783.113281 589.96875 633.113281 739.917969 448.144531 739.917969 C 368.378906 739.917969 295.132812 712.023438 237.589844 665.519531 C 288.761719 700.9375 350.867188 721.757812 417.792969 721.757812 C 592.777344 721.757812 734.601562 579.933594 734.601562 404.949219 C 734.601562 229.964844 592.777344 88.140625 417.792969 88.140625 C 350.867188 88.140625 288.761719 108.960938 237.589844 144.378906 C 295.132812 97.875 368.378906 69.980469 448.144531 69.980469 Z M 448.144531 69.980469 " fill-opacity="1" fill-rule="evenodd"/></g></svg>