<svg xmlns="http://www.w3.org/2000/svg" xmlns:xlink="http://www.w3.org/1999/xlink" width="1584" zoomAndPan="magnify" viewBox="0 0 1188 296.999993" height="396" preserveAspectRatio="xMidYMid meet" version="1.0"><defs><g/><clipPath id="691626638b"><rect x="0" width="1086" y="0" height="143"/></clipPath></defs><g transform="matrix(1, 0, 0, 1, 51, 75)"><g clip-path="url(#691626638b)"><g fill="#000000" fill-opacity="1"><g transform="translate(1.006121, 109.478365)"><g><path d="M 2.078125 -17.09375 C 4.304688 -19.800781 6.460938 -22.644531 8.546875 -25.625 C 10.628906 -28.613281 12.4375 -31.632812 13.96875 -34.6875 C 15.769531 -31.84375 18.003906 -29.203125 20.671875 -26.765625 C 23.347656 -24.335938 26.300781 -22.410156 29.53125 -20.984375 C 32.757812 -19.566406 36.148438 -18.859375 39.703125 -18.859375 C 42.265625 -18.859375 44.675781 -19.1875 46.9375 -19.84375 C 49.195312 -20.507812 51.035156 -21.570312 52.453125 -23.03125 C 53.878906 -24.488281 54.59375 -26.394531 54.59375 -28.75 C 54.59375 -30.90625 53.671875 -32.675781 51.828125 -34.0625 C 49.992188 -35.457031 47.582031 -36.640625 44.59375 -37.609375 C 41.601562 -38.578125 38.316406 -39.546875 34.734375 -40.515625 C 31.160156 -41.492188 27.566406 -42.675781 23.953125 -44.0625 C 20.347656 -45.457031 17.050781 -47.265625 14.0625 -49.484375 C 11.070312 -51.710938 8.65625 -54.5625 6.8125 -58.03125 C 4.976562 -61.5 4.0625 -65.769531 4.0625 -70.84375 C 4.0625 -75.78125 5.222656 -80.175781 7.546875 -84.03125 C 9.878906 -87.882812 13.003906 -91.164062 16.921875 -93.875 C 20.847656 -96.582031 25.242188 -98.628906 30.109375 -100.015625 C 34.972656 -101.410156 39.972656 -102.109375 45.109375 -102.109375 C 51.773438 -102.109375 57.382812 -101.394531 61.9375 -99.96875 C 66.488281 -98.539062 70.273438 -96.820312 73.296875 -94.8125 C 76.316406 -92.800781 78.867188 -90.890625 80.953125 -89.078125 C 79.210938 -86.367188 77.285156 -83.503906 75.171875 -80.484375 C 73.054688 -77.460938 71.09375 -74.21875 69.28125 -70.75 C 66.289062 -73.457031 62.78125 -75.832031 58.75 -77.875 C 54.726562 -79.925781 50.359375 -80.953125 45.640625 -80.953125 C 43.410156 -80.953125 41.148438 -80.640625 38.859375 -80.015625 C 36.566406 -79.390625 34.640625 -78.378906 33.078125 -76.984375 C 31.515625 -75.597656 30.734375 -73.757812 30.734375 -71.46875 C 30.734375 -69.113281 31.617188 -67.222656 33.390625 -65.796875 C 35.160156 -64.367188 37.519531 -63.203125 40.46875 -62.296875 C 43.425781 -61.398438 46.675781 -60.5 50.21875 -59.59375 C 53.757812 -58.6875 57.285156 -57.609375 60.796875 -56.359375 C 64.304688 -55.109375 67.535156 -53.441406 70.484375 -51.359375 C 73.429688 -49.273438 75.789062 -46.582031 77.5625 -43.28125 C 79.332031 -39.988281 80.21875 -35.804688 80.21875 -30.734375 C 80.21875 -23.929688 78.410156 -18.113281 74.796875 -13.28125 C 71.191406 -8.457031 66.28125 -4.773438 60.0625 -2.234375 C 53.84375 0.296875 46.84375 1.5625 39.0625 1.5625 C 34.6875 1.5625 30.429688 1.023438 26.296875 -0.046875 C 22.171875 -1.128906 18.40625 -2.570312 15 -4.375 C 11.59375 -6.175781 8.757812 -8.1875 6.5 -10.40625 C 4.25 -12.632812 2.773438 -14.863281 2.078125 -17.09375 Z M 2.078125 -17.09375 "/></g></g></g><g fill="#000000" fill-opacity="1"><g transform="translate(84.032498, 109.478365)"><g><path d="M 0 -53.140625 L 0 -72.9375 C 1.945312 -73.769531 4.148438 -74.945312 6.609375 -76.46875 C 9.078125 -78 11.597656 -79.769531 14.171875 -81.78125 C 16.742188 -83.800781 19.140625 -85.90625 21.359375 -88.09375 C 23.578125 -90.28125 25.414062 -92.414062 26.875 -94.5 L 27.40625 -94.5 L 27.40625 -72.9375 L 43.140625 -72.9375 L 43.140625 -53.140625 L 27.40625 -53.140625 L 27.40625 -29.484375 C 27.40625 -24.765625 28.097656 -21.601562 29.484375 -20 C 30.867188 -18.40625 32.847656 -17.609375 35.421875 -17.609375 C 37.015625 -17.609375 38.4375 -17.921875 39.6875 -18.546875 C 40.945312 -19.171875 42.0625 -20.039062 43.03125 -21.15625 C 43.375 -18.03125 43.925781 -15.003906 44.6875 -12.078125 C 45.457031 -9.160156 46.117188 -6.523438 46.671875 -4.171875 C 44.941406 -2.503906 42.507812 -1.128906 39.375 -0.046875 C 36.25 1.023438 33.019531 1.5625 29.6875 1.5625 C 21.914062 1.5625 16.046875 -0.726562 12.078125 -5.3125 C 8.117188 -9.894531 6.140625 -16.390625 6.140625 -24.796875 L 6.140625 -53.140625 Z M 0 -53.140625 "/></g></g></g><g fill="#000000" fill-opacity="1"><g transform="translate(131.222975, 109.478365)"><g><path d="M 1.046875 -62.609375 C 4.304688 -66.503906 8.226562 -69.457031 12.8125 -71.46875 C 17.394531 -73.488281 22.640625 -74.5 28.546875 -74.5 C 33.546875 -74.5 38.320312 -73.835938 42.875 -72.515625 C 47.425781 -71.191406 51.472656 -69.207031 55.015625 -66.5625 C 58.554688 -63.925781 61.367188 -60.679688 63.453125 -56.828125 C 65.535156 -52.972656 66.578125 -48.476562 66.578125 -43.34375 L 66.578125 -22.40625 C 66.578125 -20.457031 66.75 -18.507812 67.09375 -16.5625 C 67.445312 -14.625 68.195312 -13.007812 69.34375 -11.71875 C 70.488281 -10.4375 72.3125 -9.796875 74.8125 -9.796875 L 74.8125 -9.265625 C 72.789062 -8.222656 70.664062 -7.078125 68.4375 -5.828125 C 66.21875 -4.578125 64.082031 -3.394531 62.03125 -2.28125 C 59.988281 -1.175781 58.1875 -0.257812 56.625 0.46875 C 55.0625 1.195312 53.96875 1.5625 53.34375 1.5625 C 51.601562 1.5625 50.125 0.832031 48.90625 -0.625 C 47.695312 -2.082031 46.78125 -3.90625 46.15625 -6.09375 C 45.53125 -8.28125 45.21875 -10.414062 45.21875 -12.5 L 45.21875 -23.546875 C 43.894531 -21.460938 42.414062 -19.171875 40.78125 -16.671875 C 39.15625 -14.171875 37.59375 -11.738281 36.09375 -9.375 C 34.601562 -7.007812 33.335938 -5.03125 32.296875 -3.4375 C 31.804688 -2.601562 30.519531 -1.5625 28.4375 -0.3125 C 26.351562 0.9375 23.890625 1.5625 21.046875 1.5625 C 16.742188 1.5625 13.234375 0.695312 10.515625 -1.03125 C 7.804688 -2.769531 5.84375 -5.082031 4.625 -7.96875 C 3.414062 -10.851562 2.8125 -14.066406 2.8125 -17.609375 C 2.8125 -21.285156 3.660156 -24.703125 5.359375 -27.859375 C 7.066406 -31.023438 9.378906 -33.804688 12.296875 -36.203125 C 15.210938 -38.597656 18.507812 -40.472656 22.1875 -41.828125 C 25.875 -43.179688 29.726562 -43.859375 33.75 -43.859375 C 37.851562 -43.859375 41.503906 -43.128906 44.703125 -41.671875 C 43.796875 -45.773438 41.9375 -48.988281 39.125 -51.3125 C 36.3125 -53.632812 32.851562 -54.796875 28.75 -54.796875 C 25 -54.796875 21.648438 -54.101562 18.703125 -52.71875 C 15.753906 -51.332031 13.304688 -49.144531 11.359375 -46.15625 C 9.691406 -49.414062 8.054688 -52.28125 6.453125 -54.75 C 4.859375 -57.21875 3.054688 -59.835938 1.046875 -62.609375 Z M 25 -25.625 C 25 -23.957031 25.554688 -22.394531 26.671875 -20.9375 C 27.785156 -19.476562 29.726562 -18.75 32.5 -18.75 C 34.9375 -18.75 37.28125 -19.515625 39.53125 -21.046875 C 41.789062 -22.578125 43.6875 -24.660156 45.21875 -27.296875 L 45.21875 -36.5625 C 45.21875 -37.125 45.195312 -37.695312 45.15625 -38.28125 C 45.125 -38.875 45.078125 -39.414062 45.015625 -39.90625 C 44.390625 -40.25 43.710938 -40.507812 42.984375 -40.6875 C 42.253906 -40.863281 41.472656 -40.953125 40.640625 -40.953125 C 37.710938 -40.953125 35.066406 -40.113281 32.703125 -38.4375 C 30.347656 -36.769531 28.472656 -34.753906 27.078125 -32.390625 C 25.691406 -30.035156 25 -27.78125 25 -25.625 Z M 25 -25.625 "/></g></g></g><g fill="#000000" fill-opacity="1"><g transform="translate(202.894415, 109.478365)"><g><path d="M -4.171875 -62.828125 C -1.597656 -62.960938 1.160156 -63.429688 4.109375 -64.234375 C 7.066406 -65.035156 9.984375 -66.039062 12.859375 -67.25 C 15.742188 -68.46875 18.453125 -69.71875 20.984375 -71 C 23.523438 -72.289062 25.664062 -73.457031 27.40625 -74.5 L 27.40625 -54.078125 C 27.882812 -56.367188 28.660156 -58.710938 29.734375 -61.109375 C 30.816406 -63.503906 32.171875 -65.707031 33.796875 -67.71875 C 35.429688 -69.738281 37.359375 -71.375 39.578125 -72.625 C 41.804688 -73.875 44.273438 -74.5 46.984375 -74.5 C 49.066406 -74.5 51.097656 -74.097656 53.078125 -73.296875 C 55.054688 -72.492188 56.394531 -71.644531 57.09375 -70.75 C 56.125 -67.550781 55.1875 -64.109375 54.28125 -60.421875 C 53.375 -56.742188 52.644531 -53.171875 52.09375 -49.703125 C 51.257812 -51.160156 49.554688 -52.425781 46.984375 -53.5 C 44.421875 -54.570312 41.78125 -55.109375 39.0625 -55.109375 C 31.289062 -55.109375 27.40625 -52.160156 27.40625 -46.265625 L 27.40625 -13.015625 C 27.40625 -10.453125 27.71875 -7.898438 28.34375 -5.359375 C 28.96875 -2.828125 29.867188 -1.039062 31.046875 0 L 2.390625 0 C 3.578125 -1.039062 4.484375 -2.8125 5.109375 -5.3125 C 5.734375 -7.8125 6.046875 -10.347656 6.046875 -12.921875 L 6.046875 -47.40625 C 6.046875 -48.164062 5.972656 -49.34375 5.828125 -50.9375 C 5.691406 -52.539062 5.3125 -54.207031 4.6875 -55.9375 C 4.0625 -57.675781 3.050781 -59.171875 1.65625 -60.421875 C 0.269531 -61.671875 -1.671875 -62.296875 -4.171875 -62.296875 Z M -4.171875 -62.828125 "/></g></g></g><g fill="#000000" fill-opacity="1"><g transform="translate(258.939484, 109.478365)"><g><path d="M 6.046875 -78.65625 C 6.046875 -79.425781 5.972656 -80.609375 5.828125 -82.203125 C 5.691406 -83.796875 5.3125 -85.460938 4.6875 -87.203125 C 4.0625 -88.941406 3.050781 -90.4375 1.65625 -91.6875 C 0.269531 -92.9375 -1.671875 -93.5625 -4.171875 -93.5625 L -4.171875 -94.078125 C -1.597656 -94.222656 1.160156 -94.691406 4.109375 -95.484375 C 7.066406 -96.285156 9.984375 -97.289062 12.859375 -98.5 C 15.742188 -99.71875 18.453125 -100.96875 20.984375 -102.25 C 23.523438 -103.539062 25.664062 -104.707031 27.40625 -105.75 L 27.40625 -42.40625 L 48.34375 -72.9375 L 73.03125 -72.9375 L 51.890625 -42.09375 L 76.0625 0 L 51.359375 0 L 27.40625 -41.78125 L 27.40625 -13.015625 C 27.40625 -10.453125 27.71875 -7.898438 28.34375 -5.359375 C 28.96875 -2.828125 29.867188 -1.039062 31.046875 0 L 2.390625 0 C 3.578125 -1.039062 4.484375 -2.8125 5.109375 -5.3125 C 5.734375 -7.8125 6.046875 -10.347656 6.046875 -12.921875 Z M 6.046875 -78.65625 "/></g></g></g><g fill="#000000" fill-opacity="1"><g transform="translate(336.027964, 109.478365)"><g/></g></g><g fill="#ff3131" fill-opacity="1"><g transform="translate(367.290536, 109.478365)"><g><path d="M 2.078125 0 C 3.265625 -1.039062 4.171875 -2.828125 4.796875 -5.359375 C 5.421875 -7.898438 5.734375 -10.453125 5.734375 -13.015625 L 5.734375 -87.515625 C 5.734375 -90.160156 5.421875 -92.734375 4.796875 -95.234375 C 4.171875 -97.734375 3.265625 -99.503906 2.078125 -100.546875 L 32.8125 -100.546875 C 31.632812 -99.503906 30.734375 -97.75 30.109375 -95.28125 C 29.484375 -92.8125 29.171875 -90.257812 29.171875 -87.625 L 29.171875 -12.921875 C 29.171875 -10.347656 29.484375 -7.8125 30.109375 -5.3125 C 30.734375 -2.8125 31.632812 -1.039062 32.8125 0 Z M 2.078125 0 "/></g></g></g><g fill="#ff3131" fill-opacity="1"><g transform="translate(402.188688, 109.478365)"><g><path d="M -4.171875 -62.296875 L -4.171875 -62.828125 C -1.597656 -62.960938 1.160156 -63.429688 4.109375 -64.234375 C 7.066406 -65.035156 9.984375 -66.039062 12.859375 -67.25 C 15.742188 -68.46875 18.453125 -69.71875 20.984375 -71 C 23.523438 -72.289062 25.664062 -73.457031 27.40625 -74.5 L 27.40625 -50.53125 L 38.03125 -71.78125 C 39.414062 -72.550781 40.890625 -73.195312 42.453125 -73.71875 C 44.015625 -74.238281 45.769531 -74.5 47.71875 -74.5 C 54.3125 -74.5 59.519531 -72.566406 63.34375 -68.703125 C 67.164062 -64.847656 69.078125 -59 69.078125 -51.15625 L 69.078125 -13.015625 C 69.078125 -10.453125 69.390625 -7.898438 70.015625 -5.359375 C 70.640625 -2.828125 71.539062 -1.039062 72.71875 0 L 44.078125 0 C 45.253906 -1.039062 46.15625 -2.8125 46.78125 -5.3125 C 47.40625 -7.8125 47.71875 -10.347656 47.71875 -12.921875 L 47.71875 -45.953125 C 47.71875 -49.285156 46.847656 -51.851562 45.109375 -53.65625 C 43.378906 -55.457031 41.226562 -56.359375 38.65625 -56.359375 C 35.382812 -56.359375 32.878906 -55.316406 31.140625 -53.234375 C 29.410156 -51.148438 28.164062 -48.894531 27.40625 -46.46875 L 27.40625 -13.015625 C 27.40625 -10.453125 27.71875 -7.898438 28.34375 -5.359375 C 28.96875 -2.828125 29.867188 -1.039062 31.046875 0 L 2.390625 0 C 3.578125 -1.039062 4.484375 -2.8125 5.109375 -5.3125 C 5.734375 -7.8125 6.046875 -10.347656 6.046875 -12.921875 L 6.046875 -47.40625 C 6.046875 -48.164062 5.972656 -49.34375 5.828125 -50.9375 C 5.691406 -52.539062 5.3125 -54.207031 4.6875 -55.9375 C 4.0625 -57.675781 3.050781 -59.171875 1.65625 -60.421875 C 0.269531 -61.671875 -1.671875 -62.296875 -4.171875 -62.296875 Z M -4.171875 -62.296875 "/></g></g></g><g fill="#ff3131" fill-opacity="1"><g transform="translate(476.985339, 109.478365)"><g><path d="M -4.171875 -62.296875 L -4.171875 -62.828125 C -1.597656 -62.960938 1.160156 -63.429688 4.109375 -64.234375 C 7.066406 -65.035156 9.984375 -66.039062 12.859375 -67.25 C 15.742188 -68.46875 18.453125 -69.71875 20.984375 -71 C 23.523438 -72.289062 25.664062 -73.457031 27.40625 -74.5 L 27.40625 -50.53125 L 38.03125 -71.78125 C 39.414062 -72.550781 40.890625 -73.195312 42.453125 -73.71875 C 44.015625 -74.238281 45.769531 -74.5 47.71875 -74.5 C 54.3125 -74.5 59.519531 -72.566406 63.34375 -68.703125 C 67.164062 -64.847656 69.078125 -59 69.078125 -51.15625 L 69.078125 -13.015625 C 69.078125 -10.453125 69.390625 -7.898438 70.015625 -5.359375 C 70.640625 -2.828125 71.539062 -1.039062 72.71875 0 L 44.078125 0 C 45.253906 -1.039062 46.15625 -2.8125 46.78125 -5.3125 C 47.40625 -7.8125 47.71875 -10.347656 47.71875 -12.921875 L 47.71875 -45.953125 C 47.71875 -49.285156 46.847656 -51.851562 45.109375 -53.65625 C 43.378906 -55.457031 41.226562 -56.359375 38.65625 -56.359375 C 35.382812 -56.359375 32.878906 -55.316406 31.140625 -53.234375 C 29.410156 -51.148438 28.164062 -48.894531 27.40625 -46.46875 L 27.40625 -13.015625 C 27.40625 -10.453125 27.71875 -7.898438 28.34375 -5.359375 C 28.96875 -2.828125 29.867188 -1.039062 31.046875 0 L 2.390625 0 C 3.578125 -1.039062 4.484375 -2.8125 5.109375 -5.3125 C 5.734375 -7.8125 6.046875 -10.347656 6.046875 -12.921875 L 6.046875 -47.40625 C 6.046875 -48.164062 5.972656 -49.34375 5.828125 -50.9375 C 5.691406 -52.539062 5.3125 -54.207031 4.6875 -55.9375 C 4.0625 -57.675781 3.050781 -59.171875 1.65625 -60.421875 C 0.269531 -61.671875 -1.671875 -62.296875 -4.171875 -62.296875 Z M -4.171875 -62.296875 "/></g></g></g><g fill="#ff3131" fill-opacity="1"><g transform="translate(551.781991, 109.478365)"><g><path d="M 38.4375 1.5625 C 31.425781 1.5625 25.265625 -0.015625 19.953125 -3.171875 C 14.640625 -6.335938 10.503906 -10.785156 7.546875 -16.515625 C 4.597656 -22.242188 3.125 -28.894531 3.125 -36.46875 C 3.125 -44.101562 4.597656 -50.769531 7.546875 -56.46875 C 10.503906 -62.164062 14.640625 -66.59375 19.953125 -69.75 C 25.265625 -72.914062 31.425781 -74.5 38.4375 -74.5 C 45.53125 -74.5 51.734375 -72.914062 57.046875 -69.75 C 62.359375 -66.59375 66.488281 -62.164062 69.4375 -56.46875 C 72.394531 -50.769531 73.875 -44.101562 73.875 -36.46875 C 73.875 -28.894531 72.394531 -22.242188 69.4375 -16.515625 C 66.488281 -10.785156 62.359375 -6.335938 57.046875 -3.171875 C 51.734375 -0.015625 45.53125 1.5625 38.4375 1.5625 Z M 25 -36.359375 C 25 -30.867188 26.195312 -26.457031 28.59375 -23.125 C 30.988281 -19.789062 34.269531 -18.125 38.4375 -18.125 C 42.613281 -18.125 45.914062 -19.789062 48.34375 -23.125 C 50.769531 -26.457031 51.984375 -30.867188 51.984375 -36.359375 C 51.984375 -41.921875 50.769531 -46.367188 48.34375 -49.703125 C 45.914062 -53.035156 42.613281 -54.703125 38.4375 -54.703125 C 34.269531 -54.703125 30.988281 -53.035156 28.59375 -49.703125 C 26.195312 -46.367188 25 -41.921875 25 -36.359375 Z M 25 -36.359375 "/></g></g></g><g fill="#ff3131" fill-opacity="1"><g transform="translate(624.599077, 109.478365)"><g><path d="M 22.921875 0 L 0 -72.9375 L 21.875 -72.9375 L 35.9375 -28.34375 C 37.1875 -30.632812 38.453125 -33.132812 39.734375 -35.84375 C 41.023438 -38.550781 42.101562 -41.3125 42.96875 -44.125 C 43.84375 -46.9375 44.28125 -49.59375 44.28125 -52.09375 C 44.28125 -54.101562 43.863281 -56.007812 43.03125 -57.8125 C 42.195312 -59.625 40.960938 -61.117188 39.328125 -62.296875 C 37.691406 -63.484375 35.625 -64.078125 33.125 -64.078125 L 33.125 -64.59375 C 36.875 -65.570312 40.570312 -66.976562 44.21875 -68.8125 C 47.875 -70.65625 51.296875 -72.550781 54.484375 -74.5 C 57.890625 -73.382812 60.492188 -71.242188 62.296875 -68.078125 C 64.109375 -64.921875 65.015625 -61.015625 65.015625 -56.359375 C 65.015625 -52.191406 64.265625 -47.816406 62.765625 -43.234375 C 61.273438 -38.648438 59.332031 -33.960938 56.9375 -29.171875 C 54.539062 -24.378906 51.96875 -19.535156 49.21875 -14.640625 C 46.476562 -9.742188 43.859375 -4.863281 41.359375 0 Z M 22.921875 0 "/></g></g></g><g fill="#ff3131" fill-opacity="1"><g transform="translate(692.728617, 109.478365)"><g><path d="M 1.046875 -62.609375 C 4.304688 -66.503906 8.226562 -69.457031 12.8125 -71.46875 C 17.394531 -73.488281 22.640625 -74.5 28.546875 -74.5 C 33.546875 -74.5 38.320312 -73.835938 42.875 -72.515625 C 47.425781 -71.191406 51.472656 -69.207031 55.015625 -66.5625 C 58.554688 -63.925781 61.367188 -60.679688 63.453125 -56.828125 C 65.535156 -52.972656 66.578125 -48.476562 66.578125 -43.34375 L 66.578125 -22.40625 C 66.578125 -20.457031 66.75 -18.507812 67.09375 -16.5625 C 67.445312 -14.625 68.195312 -13.007812 69.34375 -11.71875 C 70.488281 -10.4375 72.3125 -9.796875 74.8125 -9.796875 L 74.8125 -9.265625 C 72.789062 -8.222656 70.664062 -7.078125 68.4375 -5.828125 C 66.21875 -4.578125 64.082031 -3.394531 62.03125 -2.28125 C 59.988281 -1.175781 58.1875 -0.257812 56.625 0.46875 C 55.0625 1.195312 53.96875 1.5625 53.34375 1.5625 C 51.601562 1.5625 50.125 0.832031 48.90625 -0.625 C 47.695312 -2.082031 46.78125 -3.90625 46.15625 -6.09375 C 45.53125 -8.28125 45.21875 -10.414062 45.21875 -12.5 L 45.21875 -23.546875 C 43.894531 -21.460938 42.414062 -19.171875 40.78125 -16.671875 C 39.15625 -14.171875 37.59375 -11.738281 36.09375 -9.375 C 34.601562 -7.007812 33.335938 -5.03125 32.296875 -3.4375 C 31.804688 -2.601562 30.519531 -1.5625 28.4375 -0.3125 C 26.351562 0.9375 23.890625 1.5625 21.046875 1.5625 C 16.742188 1.5625 13.234375 0.695312 10.515625 -1.03125 C 7.804688 -2.769531 5.84375 -5.082031 4.625 -7.96875 C 3.414062 -10.851562 2.8125 -14.066406 2.8125 -17.609375 C 2.8125 -21.285156 3.660156 -24.703125 5.359375 -27.859375 C 7.066406 -31.023438 9.378906 -33.804688 12.296875 -36.203125 C 15.210938 -38.597656 18.507812 -40.472656 22.1875 -41.828125 C 25.875 -43.179688 29.726562 -43.859375 33.75 -43.859375 C 37.851562 -43.859375 41.503906 -43.128906 44.703125 -41.671875 C 43.796875 -45.773438 41.9375 -48.988281 39.125 -51.3125 C 36.3125 -53.632812 32.851562 -54.796875 28.75 -54.796875 C 25 -54.796875 21.648438 -54.101562 18.703125 -52.71875 C 15.753906 -51.332031 13.304688 -49.144531 11.359375 -46.15625 C 9.691406 -49.414062 8.054688 -52.28125 6.453125 -54.75 C 4.859375 -57.21875 3.054688 -59.835938 1.046875 -62.609375 Z M 25 -25.625 C 25 -23.957031 25.554688 -22.394531 26.671875 -20.9375 C 27.785156 -19.476562 29.726562 -18.75 32.5 -18.75 C 34.9375 -18.75 37.28125 -19.515625 39.53125 -21.046875 C 41.789062 -22.578125 43.6875 -24.660156 45.21875 -27.296875 L 45.21875 -36.5625 C 45.21875 -37.125 45.195312 -37.695312 45.15625 -38.28125 C 45.125 -38.875 45.078125 -39.414062 45.015625 -39.90625 C 44.390625 -40.25 43.710938 -40.507812 42.984375 -40.6875 C 42.253906 -40.863281 41.472656 -40.953125 40.640625 -40.953125 C 37.710938 -40.953125 35.066406 -40.113281 32.703125 -38.4375 C 30.347656 -36.769531 28.472656 -34.753906 27.078125 -32.390625 C 25.691406 -30.035156 25 -27.78125 25 -25.625 Z M 25 -25.625 "/></g></g></g><g fill="#ff3131" fill-opacity="1"><g transform="translate(764.400038, 109.478365)"><g><path d="M 0 -53.140625 L 0 -72.9375 C 1.945312 -73.769531 4.148438 -74.945312 6.609375 -76.46875 C 9.078125 -78 11.597656 -79.769531 14.171875 -81.78125 C 16.742188 -83.800781 19.140625 -85.90625 21.359375 -88.09375 C 23.578125 -90.28125 25.414062 -92.414062 26.875 -94.5 L 27.40625 -94.5 L 27.40625 -72.9375 L 43.140625 -72.9375 L 43.140625 -53.140625 L 27.40625 -53.140625 L 27.40625 -29.484375 C 27.40625 -24.765625 28.097656 -21.601562 29.484375 -20 C 30.867188 -18.40625 32.847656 -17.609375 35.421875 -17.609375 C 37.015625 -17.609375 38.4375 -17.921875 39.6875 -18.546875 C 40.945312 -19.171875 42.0625 -20.039062 43.03125 -21.15625 C 43.375 -18.03125 43.925781 -15.003906 44.6875 -12.078125 C 45.457031 -9.160156 46.117188 -6.523438 46.671875 -4.171875 C 44.941406 -2.503906 42.507812 -1.128906 39.375 -0.046875 C 36.25 1.023438 33.019531 1.5625 29.6875 1.5625 C 21.914062 1.5625 16.046875 -0.726562 12.078125 -5.3125 C 8.117188 -9.894531 6.140625 -16.390625 6.140625 -24.796875 L 6.140625 -53.140625 Z M 0 -53.140625 "/></g></g></g><g fill="#ff3131" fill-opacity="1"><g transform="translate(814.195067, 109.478365)"><g><path d="M -4.171875 -62.828125 C -1.597656 -62.960938 1.160156 -63.429688 4.109375 -64.234375 C 7.066406 -65.035156 9.984375 -66.039062 12.859375 -67.25 C 15.742188 -68.46875 18.453125 -69.71875 20.984375 -71 C 23.523438 -72.289062 25.664062 -73.457031 27.40625 -74.5 L 27.40625 -13.015625 C 27.40625 -10.453125 27.71875 -7.898438 28.34375 -5.359375 C 28.96875 -2.828125 29.867188 -1.039062 31.046875 0 L 2.390625 0 C 3.578125 -1.039062 4.484375 -2.8125 5.109375 -5.3125 C 5.734375 -7.8125 6.046875 -10.347656 6.046875 -12.921875 L 6.046875 -47.40625 C 6.046875 -48.164062 5.972656 -49.34375 5.828125 -50.9375 C 5.691406 -52.539062 5.3125 -54.207031 4.6875 -55.9375 C 4.0625 -57.675781 3.050781 -59.171875 1.65625 -60.421875 C 0.269531 -61.671875 -1.671875 -62.296875 -4.171875 -62.296875 Z M 17.09375 -79.5 C 14.519531 -79.5 12.191406 -80.125 10.109375 -81.375 C 8.023438 -82.625 6.359375 -84.304688 5.109375 -86.421875 C 3.859375 -88.535156 3.234375 -90.847656 3.234375 -93.359375 C 3.234375 -95.921875 3.859375 -98.257812 5.109375 -100.375 C 6.359375 -102.5 8.023438 -104.1875 10.109375 -105.4375 C 12.191406 -106.6875 14.519531 -107.3125 17.09375 -107.3125 C 19.65625 -107.3125 21.992188 -106.6875 24.109375 -105.4375 C 26.234375 -104.1875 27.921875 -102.5 29.171875 -100.375 C 30.421875 -98.257812 31.046875 -95.921875 31.046875 -93.359375 C 31.046875 -90.847656 30.421875 -88.535156 29.171875 -86.421875 C 27.921875 -84.304688 26.234375 -82.625 24.109375 -81.375 C 21.992188 -80.125 19.65625 -79.5 17.09375 -79.5 Z M 17.09375 -79.5 "/></g></g></g><g fill="#ff3131" fill-opacity="1"><g transform="translate(847.322228, 109.478365)"><g><path d="M 38.4375 1.5625 C 31.425781 1.5625 25.265625 -0.015625 19.953125 -3.171875 C 14.640625 -6.335938 10.503906 -10.785156 7.546875 -16.515625 C 4.597656 -22.242188 3.125 -28.894531 3.125 -36.46875 C 3.125 -44.101562 4.597656 -50.769531 7.546875 -56.46875 C 10.503906 -62.164062 14.640625 -66.59375 19.953125 -69.75 C 25.265625 -72.914062 31.425781 -74.5 38.4375 -74.5 C 45.53125 -74.5 51.734375 -72.914062 57.046875 -69.75 C 62.359375 -66.59375 66.488281 -62.164062 69.4375 -56.46875 C 72.394531 -50.769531 73.875 -44.101562 73.875 -36.46875 C 73.875 -28.894531 72.394531 -22.242188 69.4375 -16.515625 C 66.488281 -10.785156 62.359375 -6.335938 57.046875 -3.171875 C 51.734375 -0.015625 45.53125 1.5625 38.4375 1.5625 Z M 25 -36.359375 C 25 -30.867188 26.195312 -26.457031 28.59375 -23.125 C 30.988281 -19.789062 34.269531 -18.125 38.4375 -18.125 C 42.613281 -18.125 45.914062 -19.789062 48.34375 -23.125 C 50.769531 -26.457031 51.984375 -30.867188 51.984375 -36.359375 C 51.984375 -41.921875 50.769531 -46.367188 48.34375 -49.703125 C 45.914062 -53.035156 42.613281 -54.703125 38.4375 -54.703125 C 34.269531 -54.703125 30.988281 -53.035156 28.59375 -49.703125 C 26.195312 -46.367188 25 -41.921875 25 -36.359375 Z M 25 -36.359375 "/></g></g></g><g fill="#ff3131" fill-opacity="1"><g transform="translate(924.30654, 109.478365)"><g><path d="M -4.171875 -62.296875 L -4.171875 -62.828125 C -1.597656 -62.960938 1.160156 -63.429688 4.109375 -64.234375 C 7.066406 -65.035156 9.984375 -66.039062 12.859375 -67.25 C 15.742188 -68.46875 18.453125 -69.71875 20.984375 -71 C 23.523438 -72.289062 25.664062 -73.457031 27.40625 -74.5 L 27.40625 -50.53125 L 38.03125 -71.78125 C 39.414062 -72.550781 40.890625 -73.195312 42.453125 -73.71875 C 44.015625 -74.238281 45.769531 -74.5 47.71875 -74.5 C 54.3125 -74.5 59.519531 -72.566406 63.34375 -68.703125 C 67.164062 -64.847656 69.078125 -59 69.078125 -51.15625 L 69.078125 -13.015625 C 69.078125 -10.453125 69.390625 -7.898438 70.015625 -5.359375 C 70.640625 -2.828125 71.539062 -1.039062 72.71875 0 L 44.078125 0 C 45.253906 -1.039062 46.15625 -2.8125 46.78125 -5.3125 C 47.40625 -7.8125 47.71875 -10.347656 47.71875 -12.921875 L 47.71875 -45.953125 C 47.71875 -49.285156 46.847656 -51.851562 45.109375 -53.65625 C 43.378906 -55.457031 41.226562 -56.359375 38.65625 -56.359375 C 35.382812 -56.359375 32.878906 -55.316406 31.140625 -53.234375 C 29.410156 -51.148438 28.164062 -48.894531 27.40625 -46.46875 L 27.40625 -13.015625 C 27.40625 -10.453125 27.71875 -7.898438 28.34375 -5.359375 C 28.96875 -2.828125 29.867188 -1.039062 31.046875 0 L 2.390625 0 C 3.578125 -1.039062 4.484375 -2.8125 5.109375 -5.3125 C 5.734375 -7.8125 6.046875 -10.347656 6.046875 -12.921875 L 6.046875 -47.40625 C 6.046875 -48.164062 5.972656 -49.34375 5.828125 -50.9375 C 5.691406 -52.539062 5.3125 -54.207031 4.6875 -55.9375 C 4.0625 -57.675781 3.050781 -59.171875 1.65625 -60.421875 C 0.269531 -61.671875 -1.671875 -62.296875 -4.171875 -62.296875 Z M -4.171875 -62.296875 "/></g></g></g><g fill="#ff3131" fill-opacity="1"><g transform="translate(999.103211, 109.478365)"><g><path d="M 80.84375 0 L 1.046875 0 L 46.78125 -80.75 L 21.875 -80.75 C 20.207031 -80.75 18.28125 -80.59375 16.09375 -80.28125 C 13.90625 -79.96875 11.734375 -79.394531 9.578125 -78.5625 C 7.429688 -77.726562 5.488281 -76.507812 3.75 -74.90625 L 3.75 -100.546875 L 84.8125 -100.546875 L 39.171875 -19.796875 L 62.71875 -19.796875 C 64.457031 -19.796875 66.398438 -19.953125 68.546875 -20.265625 C 70.703125 -20.578125 72.875 -21.148438 75.0625 -21.984375 C 77.25 -22.816406 79.175781 -24.03125 80.84375 -25.625 Z M 80.84375 0 "/></g></g></g></g></g></svg>